<svg width="248" height="44" viewBox="0 0 248 44" fill="none" xmlns="http://www.w3.org/2000/svg">
<path d="M11.689 34.298C14.958 34.298 17.6662 33.638 19.8116 32.318C21.957 30.9962 23.0307 29.0748 23.0307 26.554C22.865 23.1532 20.1089 20.603 14.7604 18.9035L11.8865 17.809C11.2599 17.6257 10.8128 17.446 10.5494 17.2627C10.4277 17.1871 10.328 17.0852 10.2591 16.966C10.1902 16.8468 10.1542 16.7138 10.1543 16.5788C10.1543 15.8198 10.6991 15.4422 11.7888 15.4422C13.1419 15.4422 14.1477 16.0783 14.8083 17.3543L22.1885 15.4403C20.4063 11.3703 16.9717 9.33717 11.8865 9.33717C8.84905 9.33717 6.32246 10.0668 4.30877 11.5243C2.29508 12.98 1.28724 14.8793 1.28724 17.215C1.28724 17.9447 1.403 18.6193 1.6345 19.2427C1.866 19.866 2.21326 20.4123 2.67427 20.8817C3.13728 21.3528 3.58233 21.7617 4.01141 22.1118C4.44049 22.4602 4.98532 22.7883 5.6479 23.0908C6.30649 23.3952 6.80942 23.6152 7.15667 23.7508C7.50393 23.8883 7.97492 24.0478 8.56765 24.2293L9.40985 24.5043L12.3835 25.5053C13.1079 25.7492 13.5809 25.9527 13.7945 26.1195C13.8988 26.2 13.9818 26.3012 14.0371 26.4156C14.0925 26.53 14.1187 26.6544 14.1138 26.7795C14.1138 27.5697 13.3075 27.9657 11.689 27.9657C9.31206 27.9657 7.8911 26.994 7.43009 25.0507L0 26.5998C0.924021 31.7332 4.82167 34.2998 11.689 34.2998V34.298ZM34.9112 34.298C38.1802 34.298 40.5891 33.143 42.1417 30.8367V33.7975H52.3439V9.83767H42.1417V22.957C42.1417 25.6593 41.1339 27.0087 39.1202 27.0087C37.0726 27.0087 36.0488 25.6593 36.0488 22.957V9.83767H25.8466V23.8682C25.8466 30.822 28.8682 34.2998 34.9112 34.2998V34.298ZM67.0484 33.7975V20.68C67.0484 17.9758 68.0543 16.6247 70.0679 16.6247C72.1156 16.6247 73.1414 17.9758 73.1414 20.68V33.7975H83.3415V19.7688C83.3415 12.815 80.322 9.33717 74.2789 9.33717C71.0099 9.33717 68.5991 10.4922 67.0484 12.7985V9.83767H56.8443V33.7975H67.0484V33.7975ZM97.7487 33.7975V20.68C97.7487 17.9758 98.7545 16.6247 100.77 16.6247C102.816 16.6247 103.84 17.9758 103.84 20.68V33.7975H114.044V19.7688C114.044 12.815 111.022 9.33717 104.979 9.33717C101.71 9.33717 99.2993 10.4922 97.7487 12.7985V9.83767H87.5445V33.7975H97.7487V33.7975ZM129.638 44L146.181 9.83767H135.53L130.477 22.0917L125.97 9.83767H114.826L125.673 31.4747L119.632 44H129.638ZM156.92 34.298C160.189 34.298 162.897 33.638 165.043 32.318C167.19 30.9962 168.264 29.0748 168.264 26.554C168.098 23.1532 165.34 20.603 159.991 18.9035L157.118 17.809C156.491 17.6257 156.046 17.446 155.78 17.2627C155.659 17.1871 155.559 17.0852 155.49 16.966C155.421 16.8468 155.385 16.7138 155.385 16.5788C155.385 15.8198 155.93 15.4422 157.02 15.4422C158.373 15.4422 159.381 16.0783 160.041 17.3543L167.421 15.4403C165.637 11.3703 162.205 9.33717 157.119 9.33717C154.082 9.33717 151.555 10.0668 149.542 11.5243C147.526 12.9818 146.52 14.8793 146.52 17.2168C146.52 17.9465 146.636 18.6212 146.865 19.2445C147.097 19.8678 147.444 20.4142 147.907 20.8835C148.368 21.3547 148.815 21.7635 149.244 22.1137C149.673 22.462 150.218 22.7902 150.879 23.0927C151.537 23.397 152.042 23.617 152.39 23.7527C152.735 23.8902 153.208 24.0497 153.801 24.2312L154.643 24.5062L157.614 25.5072C158.341 25.751 158.812 25.9545 159.025 26.1213C159.13 26.2016 159.213 26.3028 159.269 26.4172C159.325 26.5316 159.351 26.6561 159.347 26.7813C159.347 27.5715 158.538 27.9675 156.92 27.9675C154.545 27.9675 153.124 26.9958 152.661 25.0525L145.231 26.5998C146.157 31.7332 150.053 34.2998 156.92 34.2998V34.298ZM176.478 8.38017C178.294 8.38017 179.697 7.986 180.689 7.19583C181.677 6.4075 182.174 5.40467 182.174 4.18917C182.174 2.94617 181.695 1.93417 180.737 1.16233C179.779 0.385 178.36 0 176.478 0C174.596 0 173.175 0.386833 172.217 1.16233C171.259 1.936 170.78 2.94617 170.78 4.191C170.78 5.40467 171.277 6.4075 172.267 7.19767C173.259 7.986 174.662 8.38017 176.478 8.38017V8.38017ZM181.579 33.7975V9.83767H171.373V33.7975H181.577H181.579ZM197.026 34.298C200.493 34.298 202.967 33.143 204.454 30.8367V33.7975H214.656V0.865333H204.454V12.8443C202.967 10.5068 200.493 9.33717 197.024 9.33717C193.526 9.33717 190.61 10.5142 188.283 12.8682C185.956 15.2203 184.79 18.2032 184.79 21.8185C184.79 25.4302 185.956 28.4148 188.283 30.7688C190.61 33.121 193.526 34.298 197.024 34.298H197.026ZM199.8 27.148C198.345 27.148 197.182 26.6457 196.308 25.6447C195.431 24.6418 194.994 23.3658 194.994 21.8185C194.994 20.2693 195.423 18.9952 196.282 17.9923C197.174 16.9895 198.345 16.489 199.798 16.489C201.251 16.489 202.414 16.9895 203.291 17.9923C204.165 18.9933 204.602 20.2693 204.602 21.8185C204.602 23.3658 204.165 24.6418 203.291 25.6447C202.414 26.6457 201.251 27.148 199.798 27.148H199.8ZM233.125 34.298C238.308 34.298 242.353 32.9157 245.259 30.1547L241.048 24.9608C238.968 26.51 236.623 27.2837 234.015 27.2837C232.035 27.2837 230.425 26.873 229.185 26.0553C227.948 25.234 227.329 24.4438 227.329 23.6848H246.496C246.662 23.1385 246.744 22.4253 246.744 21.5453C246.744 17.7797 245.398 14.8042 242.708 12.617C240.016 10.4298 236.575 9.33717 232.38 9.33717C227.89 9.33717 224.342 10.5673 221.733 13.0277C219.125 15.4862 217.82 18.447 217.82 21.9083C217.82 25.4613 219.197 28.4148 221.955 30.7688C224.713 33.121 228.435 34.298 233.125 34.298V34.298ZM237.531 19.3582H227.329C227.395 18.2343 227.924 17.3782 228.914 16.7842C229.904 16.192 231.077 15.8968 232.43 15.8968C233.783 15.8968 234.957 16.1993 235.947 16.808C236.419 17.0807 236.81 17.4561 237.086 17.9009C237.363 18.3457 237.516 18.8462 237.531 19.3582V19.3582Z" fill="#338774"/>
</svg>
